<svg xmlns="http://www.w3.org/2000/svg" width="512" height="512" viewBox="0 0 512 512"><path d="M 241.5 43.5 L 203.5 49.5 L 162.5 64.5 L 144.5 74.5 L 120.5 91.5 L 91.5 120.5 L 74.5 144.5 L 65.5 160.5 L 51.5 196.5 L 44.5 230.5 L 43.5 270.5 L 49.5 308.5 L 57.5 333.5 L 65.5 351.5 L 74.5 367.5 L 91.5 391.5 L 120.5 420.5 L 149.5 440.5 L 173.5 452.5 L 196.5 460.5 L 231.5 467.5 L 270.5 468.5 L 308.5 462.5 L 333.5 454.5 L 349.5 447.5 L 379.5 429.5 L 399.5 413.5 L 413.5 399.5 L 437.5 367.5 L 447.5 349.5 L 455.5 330.5 L 462.5 308.5 L 466.5 288.5 L 468.5 270.5 L 468.5 241.5 L 462.5 203.5 L 455.5 181.5 L 446.5 160.5 L 437.5 144.5 L 420.5 120.5 L 391.5 91.5 L 367.5 74.5 L 353.5 66.5 L 322.5 53.5 L 304.5 48.5 L 281.5 44.5 Z M 248.5 105.5 L 281.5 107.5 L 307.5 114.5 L 332.5 126.5 L 353.5 141.5 L 370.5 158.5 L 389.5 186.5 L 400.5 213.5 L 405.5 237.5 L 404.5 246.5 L 330.5 246.5 L 328.5 244.5 L 324.5 227.5 L 314.5 210.5 L 301.5 197.5 L 284.5 187.5 L 266.5 182.5 L 245.5 182.5 L 227.5 187.5 L 210.5 197.5 L 197.5 210.5 L 187.5 227.5 L 183.5 240.5 L 182.5 266.5 L 187.5 284.5 L 197.5 301.5 L 214.5 317.5 L 236.5 327.5 L 245.5 329.5 L 266.5 329.5 L 284.5 324.5 L 301.5 314.5 L 317.5 297.5 L 324.5 284.5 L 328.5 267.5 L 330.5 265.5 L 405.5 266.5 L 403.5 286.5 L 392.5 319.5 L 374.5 348.5 L 354.5 369.5 L 332.5 385.5 L 312.5 395.5 L 286.5 403.5 L 263.5 406.5 L 230.5 404.5 L 204.5 397.5 L 184.5 388.5 L 157.5 369.5 L 137.5 348.5 L 119.5 319.5 L 111.5 298.5 L 107.5 281.5 L 105.5 263.5 L 107.5 230.5 L 114.5 204.5 L 123.5 184.5 L 142.5 157.5 L 163.5 137.5 L 192.5 119.5 L 213.5 111.5 L 230.5 107.5 Z" fill="#2962FE" fill-rule="evenodd" /><path d="M 243.5 107.5 L 215.5 112.5 L 198.5 118.5 L 180.5 127.5 L 159.5 142.5 L 142.5 159.5 L 127.5 180.5 L 118.5 198.5 L 112.5 215.5 L 107.5 243.5 L 107.5 268.5 L 112.5 296.5 L 118.5 313.5 L 127.5 331.5 L 142.5 352.5 L 159.5 369.5 L 180.5 384.5 L 198.5 393.5 L 212.5 398.5 L 243.5 404.5 L 268.5 404.5 L 296.5 399.5 L 313.5 393.5 L 331.5 384.5 L 352.5 369.5 L 369.5 352.5 L 384.5 331.5 L 393.5 313.5 L 401.5 288.5 L 404.5 267.5 L 330.5 267.5 L 326.5 283.5 L 315.5 302.5 L 299.5 317.5 L 283.5 326.5 L 269.5 330.5 L 249.5 331.5 L 237.5 329.5 L 228.5 326.5 L 209.5 315.5 L 196.5 302.5 L 185.5 283.5 L 180.5 262.5 L 181.5 242.5 L 185.5 228.5 L 196.5 209.5 L 209.5 196.5 L 228.5 185.5 L 249.5 180.5 L 269.5 181.5 L 283.5 185.5 L 293.5 190.5 L 303.5 197.5 L 315.5 209.5 L 326.5 228.5 L 330.5 244.5 L 404.5 243.5 L 398.5 212.5 L 393.5 198.5 L 384.5 180.5 L 369.5 159.5 L 352.5 142.5 L 331.5 127.5 L 313.5 118.5 L 296.5 112.5 L 269.5 107.5 Z" fill="#FFFFFF" fill-rule="evenodd" /></svg>