<svg xmlns="http://www.w3.org/2000/svg" width="229" height="221" viewBox="0 0 229 221"><path d="M 125.5 174.5 L 124.5 174.5 L 124.5 177.5 Z M 103.5 173.5 L 102.5 174.5 L 103.5 175.5 L 103.5 177.5 Z M 131.5 187.5 L 133.5 187.5 L 140.5 190.5 L 143.5 190.5 L 147.5 192.5 L 150.5 192.5 L 157.5 195.5 L 166.5 196.5 L 167.5 198.5 L 169.5 197.5 L 170.5 199.5 L 171.5 198.5 L 173.5 198.5 L 174.5 199.5 L 176.5 199.5 L 177.5 201.5 L 179.5 200.5 L 180.5 202.5 L 181.5 201.5 L 183.5 201.5 L 184.5 203.5 L 186.5 202.5 L 187.5 204.5 L 188.5 203.5 L 193.5 204.5 L 194.5 205.5 L 196.5 205.5 L 197.5 207.5 L 198.5 206.5 L 200.5 206.5 L 201.5 207.5 L 203.5 207.5 L 204.5 209.5 L 206.5 208.5 L 207.5 210.5 L 208.5 209.5 L 210.5 209.5 L 211.5 211.5 L 213.5 210.5 L 212.5 209.5 L 213.5 204.5 L 215.5 203.5 L 214.5 201.5 L 216.5 200.5 L 215.5 199.5 L 215.5 197.5 L 216.5 196.5 L 216.5 194.5 L 218.5 193.5 L 217.5 191.5 L 219.5 190.5 L 218.5 189.5 L 218.5 187.5 L 219.5 186.5 L 219.5 184.5 L 221.5 183.5 L 220.5 181.5 L 221.5 180.5 L 221.5 177.5 L 223.5 176.5 L 222.5 174.5 L 224.5 173.5 L 223.5 171.5 L 224.5 170.5 L 225.5 164.5 L 227.5 163.5 L 226.5 162.5 L 163.5 162.5 Z M 0.5 162.5 L 2.5 163.5 L 2.5 165.5 L 3.5 166.5 L 3.5 168.5 L 2.5 169.5 L 4.5 170.5 L 3.5 172.5 L 5.5 173.5 L 5.5 176.5 L 6.5 177.5 L 5.5 179.5 L 7.5 180.5 L 7.5 182.5 L 8.5 183.5 L 8.5 186.5 L 9.5 187.5 L 8.5 189.5 L 10.5 190.5 L 10.5 192.5 L 11.5 193.5 L 11.5 195.5 L 10.5 196.5 L 12.5 197.5 L 11.5 199.5 L 13.5 200.5 L 13.5 203.5 L 14.5 204.5 L 13.5 206.5 L 15.5 207.5 L 15.5 209.5 L 16.5 210.5 L 18.5 209.5 L 20.5 210.5 L 21.5 208.5 L 23.5 209.5 L 24.5 207.5 L 26.5 207.5 L 27.5 208.5 L 28.5 206.5 L 30.5 207.5 L 31.5 205.5 L 33.5 205.5 L 34.5 204.5 L 36.5 204.5 L 37.5 205.5 L 38.5 203.5 L 40.5 204.5 L 41.5 202.5 L 44.5 202.5 L 45.5 201.5 L 47.5 202.5 L 48.5 200.5 L 50.5 201.5 L 51.5 199.5 L 54.5 199.5 L 55.5 198.5 L 57.5 199.5 L 58.5 197.5 L 60.5 197.5 L 61.5 196.5 L 67.5 196.5 L 74.5 193.5 L 77.5 193.5 L 84.5 190.5 L 87.5 190.5 L 88.5 189.5 L 96.5 187.5 L 64.5 162.5 Z M 209.5 3.5 L 199.5 8.5 L 194.5 12.5 L 189.5 14.5 L 187.5 16.5 L 184.5 17.5 L 182.5 19.5 L 179.5 20.5 L 177.5 22.5 L 174.5 23.5 L 172.5 25.5 L 169.5 26.5 L 167.5 28.5 L 164.5 29.5 L 162.5 31.5 L 159.5 32.5 L 157.5 34.5 L 154.5 35.5 L 152.5 37.5 L 136.5 46.5 L 137.5 47.5 L 137.5 56.5 L 138.5 57.5 L 138.5 66.5 L 139.5 67.5 L 139.5 83.5 L 138.5 84.5 L 137.5 96.5 L 136.5 97.5 L 135.5 109.5 L 134.5 110.5 L 133.5 122.5 L 132.5 123.5 L 132.5 126.5 L 133.5 127.5 L 131.5 129.5 L 131.5 135.5 L 130.5 136.5 L 130.5 141.5 L 129.5 142.5 L 129.5 148.5 L 128.5 149.5 L 128.5 151.5 L 129.5 152.5 L 127.5 155.5 L 127.5 161.5 L 126.5 162.5 L 126.5 164.5 L 127.5 165.5 L 125.5 168.5 L 125.5 171.5 L 126.5 172.5 L 126.5 170.5 L 130.5 162.5 L 129.5 160.5 L 131.5 159.5 L 131.5 157.5 L 132.5 156.5 L 131.5 155.5 L 133.5 154.5 L 133.5 152.5 L 136.5 146.5 L 136.5 143.5 L 142.5 130.5 L 156.5 130.5 L 164.5 138.5 L 168.5 138.5 L 170.5 136.5 L 172.5 137.5 L 173.5 136.5 L 180.5 135.5 L 180.5 106.5 L 168.5 98.5 L 165.5 95.5 L 155.5 89.5 L 152.5 86.5 L 142.5 80.5 L 139.5 76.5 Z M 18.5 2.5 L 18.5 3.5 L 88.5 76.5 L 85.5 80.5 L 81.5 82.5 L 78.5 85.5 L 68.5 91.5 L 65.5 94.5 L 47.5 106.5 L 47.5 135.5 L 50.5 135.5 L 51.5 136.5 L 54.5 136.5 L 55.5 137.5 L 58.5 137.5 L 63.5 139.5 L 63.5 138.5 L 71.5 130.5 L 85.5 130.5 L 87.5 132.5 L 87.5 134.5 L 92.5 145.5 L 91.5 146.5 L 93.5 149.5 L 95.5 156.5 L 97.5 157.5 L 96.5 159.5 L 100.5 167.5 L 101.5 172.5 L 102.5 167.5 L 101.5 166.5 L 101.5 160.5 L 99.5 158.5 L 100.5 157.5 L 100.5 154.5 L 99.5 153.5 L 99.5 147.5 L 97.5 145.5 L 98.5 144.5 L 98.5 141.5 L 97.5 140.5 L 97.5 134.5 L 95.5 132.5 L 96.5 131.5 L 96.5 128.5 L 95.5 127.5 L 95.5 121.5 L 94.5 120.5 L 93.5 108.5 L 92.5 107.5 L 91.5 95.5 L 90.5 94.5 L 89.5 82.5 L 88.5 81.5 L 88.5 70.5 L 89.5 69.5 L 89.5 59.5 L 90.5 58.5 L 90.5 49.5 L 91.5 48.5 L 91.5 46.5 L 82.5 41.5 L 80.5 39.5 L 75.5 37.5 L 70.5 33.5 L 55.5 25.5 L 53.5 23.5 L 50.5 22.5 L 48.5 20.5 L 45.5 19.5 L 43.5 17.5 L 40.5 16.5 L 38.5 14.5 L 35.5 13.5 L 33.5 11.5 L 30.5 10.5 L 28.5 8.5 L 25.5 7.5 L 23.5 5.5 L 20.5 4.5 Z" fill="#F1520E" fill-rule="evenodd" /><path d="M 1.5 158.5 L 1.5 160.5 L 63.5 160.5 L 66.5 163.5 L 68.5 163.5 L 71.5 167.5 L 72.5 166.5 L 75.5 170.5 L 77.5 170.5 L 79.5 173.5 L 81.5 173.5 L 83.5 176.5 L 85.5 176.5 L 88.5 180.5 L 89.5 179.5 L 92.5 183.5 L 93.5 182.5 L 97.5 187.5 L 100.5 184.5 L 99.5 183.5 L 105.5 178.5 L 122.5 178.5 L 130.5 185.5 L 129.5 186.5 L 130.5 187.5 L 133.5 183.5 L 135.5 183.5 L 137.5 180.5 L 139.5 180.5 L 142.5 176.5 L 143.5 177.5 L 146.5 173.5 L 147.5 174.5 L 150.5 170.5 L 151.5 171.5 L 154.5 167.5 L 156.5 167.5 L 158.5 164.5 L 160.5 164.5 L 164.5 160.5 L 226.5 160.5 L 227.5 161.5 L 226.5 160.5 L 224.5 149.5 L 222.5 145.5 L 220.5 134.5 L 218.5 130.5 L 218.5 127.5 L 217.5 126.5 L 217.5 123.5 L 216.5 122.5 L 216.5 119.5 L 214.5 115.5 L 214.5 112.5 L 213.5 111.5 L 212.5 106.5 L 181.5 106.5 L 181.5 135.5 L 179.5 137.5 L 177.5 136.5 L 176.5 138.5 L 173.5 137.5 L 172.5 139.5 L 169.5 138.5 L 168.5 140.5 L 165.5 139.5 L 164.5 141.5 L 162.5 140.5 L 160.5 142.5 L 158.5 141.5 L 156.5 143.5 L 154.5 142.5 L 152.5 144.5 L 150.5 143.5 L 148.5 145.5 L 146.5 144.5 L 144.5 146.5 L 142.5 145.5 L 140.5 147.5 L 138.5 146.5 L 137.5 148.5 L 136.5 147.5 L 137.5 148.5 L 135.5 150.5 L 136.5 151.5 L 134.5 152.5 L 135.5 154.5 L 133.5 155.5 L 134.5 156.5 L 132.5 158.5 L 133.5 159.5 L 131.5 160.5 L 131.5 162.5 L 130.5 163.5 L 131.5 164.5 L 129.5 165.5 L 130.5 167.5 L 128.5 168.5 L 129.5 169.5 L 127.5 171.5 L 128.5 172.5 L 126.5 173.5 L 127.5 174.5 L 125.5 176.5 L 126.5 177.5 L 124.5 179.5 L 122.5 176.5 L 124.5 173.5 L 123.5 169.5 L 125.5 167.5 L 124.5 162.5 L 126.5 160.5 L 125.5 156.5 L 127.5 154.5 L 126.5 149.5 L 128.5 147.5 L 127.5 143.5 L 129.5 141.5 L 128.5 136.5 L 130.5 134.5 L 129.5 130.5 L 131.5 128.5 L 130.5 124.5 L 132.5 121.5 L 132.5 119.5 L 131.5 118.5 L 133.5 115.5 L 133.5 109.5 L 134.5 108.5 L 134.5 106.5 L 133.5 105.5 L 135.5 102.5 L 135.5 96.5 L 136.5 95.5 L 136.5 93.5 L 135.5 92.5 L 137.5 89.5 L 137.5 83.5 L 138.5 82.5 L 138.5 80.5 L 137.5 79.5 L 138.5 78.5 L 138.5 74.5 L 137.5 73.5 L 138.5 72.5 L 138.5 68.5 L 137.5 67.5 L 137.5 58.5 L 135.5 53.5 L 136.5 51.5 L 135.5 46.5 L 92.5 46.5 L 92.5 49.5 L 91.5 50.5 L 91.5 59.5 L 90.5 60.5 L 90.5 64.5 L 91.5 65.5 L 89.5 70.5 L 89.5 75.5 L 90.5 76.5 L 89.5 81.5 L 91.5 84.5 L 90.5 85.5 L 90.5 87.5 L 91.5 88.5 L 91.5 94.5 L 93.5 97.5 L 92.5 98.5 L 92.5 100.5 L 93.5 101.5 L 93.5 107.5 L 95.5 110.5 L 94.5 111.5 L 94.5 113.5 L 95.5 114.5 L 95.5 120.5 L 97.5 122.5 L 96.5 126.5 L 98.5 129.5 L 97.5 133.5 L 99.5 135.5 L 98.5 137.5 L 98.5 139.5 L 100.5 142.5 L 99.5 143.5 L 99.5 146.5 L 101.5 148.5 L 100.5 150.5 L 100.5 152.5 L 102.5 155.5 L 101.5 156.5 L 101.5 159.5 L 103.5 161.5 L 102.5 163.5 L 102.5 165.5 L 104.5 168.5 L 103.5 169.5 L 103.5 172.5 L 105.5 174.5 L 103.5 178.5 L 102.5 177.5 L 102.5 175.5 L 100.5 174.5 L 101.5 173.5 L 99.5 171.5 L 100.5 170.5 L 98.5 169.5 L 99.5 168.5 L 97.5 166.5 L 98.5 165.5 L 96.5 164.5 L 97.5 162.5 L 95.5 161.5 L 96.5 160.5 L 94.5 158.5 L 95.5 157.5 L 93.5 156.5 L 94.5 154.5 L 92.5 153.5 L 93.5 152.5 L 91.5 150.5 L 92.5 149.5 L 90.5 148.5 L 91.5 147.5 L 89.5 146.5 L 88.5 147.5 L 85.5 145.5 L 83.5 146.5 L 81.5 144.5 L 79.5 145.5 L 77.5 143.5 L 75.5 144.5 L 73.5 142.5 L 71.5 143.5 L 69.5 141.5 L 67.5 142.5 L 65.5 140.5 L 63.5 141.5 L 62.5 139.5 L 60.5 140.5 L 58.5 138.5 L 56.5 139.5 L 54.5 137.5 L 52.5 138.5 L 50.5 136.5 L 48.5 137.5 L 46.5 135.5 L 46.5 106.5 L 15.5 106.5 L 14.5 112.5 L 11.5 120.5 L 11.5 123.5 L 10.5 124.5 L 10.5 127.5 L 8.5 131.5 L 6.5 142.5 L 4.5 146.5 L 2.5 157.5 Z" fill="#FE8C5C" fill-rule="evenodd" /><path d="M 98.5 187.5 L 99.5 192.5 L 101.5 196.5 L 101.5 199.5 L 126.5 199.5 L 127.5 193.5 L 129.5 189.5 L 129.5 187.5 L 123.5 181.5 L 104.5 181.5 Z M 137.5 145.5 L 142.5 144.5 L 143.5 143.5 L 147.5 143.5 L 148.5 142.5 L 155.5 141.5 L 159.5 139.5 L 163.5 139.5 L 163.5 138.5 L 162.5 138.5 L 156.5 132.5 L 142.5 132.5 L 142.5 134.5 Z M 65.5 138.5 L 65.5 139.5 L 68.5 139.5 L 69.5 140.5 L 72.5 140.5 L 73.5 141.5 L 76.5 141.5 L 77.5 142.5 L 80.5 142.5 L 81.5 143.5 L 84.5 143.5 L 85.5 144.5 L 90.5 145.5 L 85.5 132.5 L 71.5 132.5 Z M 212.5 1.5 L 140.5 77.5 L 181.5 105.5 L 212.5 105.5 L 217.5 89.5 L 218.5 88.5 L 218.5 85.5 L 224.5 69.5 L 224.5 66.5 L 227.5 59.5 L 225.5 49.5 L 224.5 48.5 L 224.5 45.5 L 223.5 44.5 L 223.5 41.5 L 222.5 40.5 L 222.5 37.5 L 220.5 33.5 L 220.5 30.5 L 219.5 29.5 L 219.5 26.5 L 218.5 25.5 L 218.5 22.5 L 217.5 21.5 L 217.5 18.5 L 215.5 13.5 L 215.5 10.5 L 214.5 9.5 L 214.5 6.5 L 213.5 5.5 L 213.5 2.5 Z M 15.5 1.5 L 14.5 6.5 L 13.5 7.5 L 13.5 10.5 L 12.5 11.5 L 12.5 14.5 L 11.5 15.5 L 11.5 18.5 L 10.5 19.5 L 10.5 22.5 L 8.5 26.5 L 8.5 30.5 L 6.5 34.5 L 6.5 37.5 L 5.5 38.5 L 5.5 41.5 L 4.5 42.5 L 1.5 57.5 L 0.5 58.5 L 2.5 62.5 L 2.5 65.5 L 8.5 81.5 L 8.5 84.5 L 9.5 85.5 L 15.5 105.5 L 46.5 105.5 L 87.5 77.5 L 85.5 74.5 Z" fill="#651700" fill-rule="evenodd" /><path d="M 65.5 198.5 L 100.5 219.5 L 102.5 219.5 L 103.5 218.5 L 125.5 218.5 L 125.5 201.5 L 126.5 200.5 L 127.5 201.5 L 127.5 219.5 L 162.5 198.5 L 155.5 195.5 L 152.5 195.5 L 151.5 194.5 L 149.5 194.5 L 145.5 192.5 L 142.5 192.5 L 130.5 188.5 L 130.5 190.5 L 129.5 191.5 L 128.5 198.5 L 126.5 200.5 L 101.5 200.5 L 99.5 197.5 L 99.5 194.5 L 98.5 193.5 L 97.5 188.5 L 92.5 190.5 L 89.5 190.5 L 82.5 193.5 L 79.5 193.5 L 75.5 195.5 L 72.5 195.5 Z" fill="#DFE0E8" fill-rule="evenodd" /><path d="M 227.5 160.5 L 226.5 161.5 L 164.5 161.5 L 226.5 161.5 Z" fill="#FD9063" fill-rule="evenodd" /><path d="M 14.5 207.5 L 14.5 209.5 L 15.5 211.5 L 16.5 211.5 L 14.5 209.5 Z M 71.5 131.5 L 85.5 131.5 L 86.5 132.5 L 85.5 131.5 Z" fill="#DB3B01" fill-rule="evenodd" /><path d="M 70.5 132.5 L 64.5 138.5 L 64.5 139.5 L 64.5 138.5 Z" fill="#9C310A" fill-rule="evenodd" /><path d="M 103.5 181.5 L 104.5 180.5 L 123.5 180.5 L 126.5 183.5 L 123.5 180.5 L 104.5 180.5 Z" fill="#A1492B" fill-rule="evenodd" /><path d="M 126.5 201.5 L 126.5 218.5 L 125.5 219.5 L 103.5 219.5 L 126.5 219.5 Z" fill="#C2BFC5" fill-rule="evenodd" /></svg>